ply
format ascii 1.0
comment Created by MeshMan.
element vertex 202
property float x
property float y
property float z
element face 400
property list uchar int vertex_indices
end_header
8.73699 -16.0989 -0.612909
7.51938 -14.8093 -5.30976
9.63139 -14.2495 -3.36863
5.94423 -17.2464 -3.58787
2.83479 -15.4918 -6.89714
5.85778 -13.6544 -7.5684
8.23071 -11.9335 -6.24429
0.854376 -16.1697 -6.11922
10.0895 -14.4941 2.32402
4.19427 -9.70728 -9.21679
-1.73711 -13.0139 -8.75024
4.99738 -0.325055 -0.374872
2.39465 0.421432 -4.88307
5.70132 -1.13282 -4.51257
8.42455 -2.04371 -4.86021
2.24554 -18.5466 -0.621019
2.11788 -18.8482 5.25134
4.12714 -18.4353 2.62788
0.208497 -18.0181 3.86949
6.99007 -17.7156 3.90963
8.91848 -17.2466 6.11243
-10.4451 -14.0702 1.67098
-7.45227 -17.6663 3.64543
3.58482 -2.80425 -7.76507
6.87934 -2.89889 -6.36592
8.33488 -6.7335 -5.32007
8.60638 -5.60519 1.25228
9.05284 -2.44668 -4.63084
8.12536 -0.724408 -1.42083
9.67459 -10.4786 -3.87528
11.5036 -4.64281 -1.27598
-9.73239 -0.622083 -2.60053
-10.7461 1.33495 -1.13531
-8.89488 -3.64838 -3.78764
-7.79201 -1.49106 -3.62659
-3.03456 1.94949 -2.40343
-0.949578 -1.32975 -7.55666
-6.69202 -17.6136 -2.89193
-6.19643 -18.8014 4.94534
-3.76778 -18.9102 -1.0548
4.85389 -19.4682 4.01208
-4.54254 -18.5802 5.65062
-3.03235 -17.195 5.23457
-2.43034 -18.9319 1.51088
-0.358819 -8.16598 -14.0506
-0.998679 -10.3961 -13.666
-0.174905 -6.84371 -12.4043
-2.03412 -8.55477 -12.6773
-1.4712 -12.0608 -12.5262
1.63114 -11.2384 -12.4865
1.00604 -7.99802 -13.2063
-0.91306 -7.26056 -9.70515
2.50044 -10.798 -9.43083
-2.74109 -9.19937 -9.77425
1.39184 -7.03215 -10.0625
-7.64451 -12.4606 13.3622
-5.16871 -15.5741 13.5494
-8.23244 -19.5004 9.79847
-9.34157 -14.9784 11.7826
-4.11048 -17.3288 12.7143
-6.10006 -19.6949 10.7655
-3.59656 -13.035 13.5552
-10.4734 -13.3432 10.1801
-7.66786 -10.7748 12.1365
-4.82974 -12.008 10.5845
-5.98394 -20.4492 8.17118
-10.269 -17.0311 10.1814
-7.39118 -11.4704 9.25374
-5.96726 -11.2781 7.42983
-8.47724 -13.0491 4.86764
-2.7039 -13.3494 7.78129
5.48695 -19.0421 10.6166
8.78007 -19.6165 8.39292
3.35918 -15.8979 13.4364
6.13286 -14.9865 13.6079
9.96382 -18.3948 8.66194
5.84199 -20.633 6.7133
2.80293 -20.3314 9.37246
2.15421 -18.9261 11.7406
3.13211 -14.641 11.6074
5.37533 -14.188 11.8547
9.59671 -16.3851 11.3858
4.41606 -20.7944 5.44585
8.08893 -19.3887 6.10163
0.812493 -16.9695 6.29957
1.13496 -14.2265 7.77354
4.08845 -11.9719 8.25934
15.5118 -7.3237 0.258738
15.3924 -8.24273 2.28443
16.2845 -6.09494 3.91243
17.0743 -7.10653 2.04129
14.847 -3.93078 -2.31052
14.6212 -3.30977 5.52681
15.4145 -2.00662 2.76428
15.7651 -2.72984 -0.310616
13.7791 -6.29929 5.80659
12.1724 -2.80774 6.87967
11.0169 -0.0349717 5.22803
11.2215 1.16887 2.15601
13.8562 -0.536947 -1.27021
10.9748 -1.92174 -2.926
-15.6086 3.60863 2.52473
-15.9916 5.14779 1.11682
-17.0348 3.50046 0.106818
-14.012 4.53037 0.761832
-16.7958 1.19856 1.58355
-14.8279 4.20139 -0.338762
-17.0215 1.41992 -0.404004
-14.8046 1.28926 3.23384
-14.2662 -2.33086 2.41995
-14.9642 -2.56928 -0.409963
-11.6132 -2.74625 -2.56671
-9.82345 0.51647 1.96657
-7.45137 -3.37247 3.78015
-8.68646 -5.27344 3.29896
-10.1489 -6.09284 -2.26788
-5.63498 -1.00787 2.19923
7.43318 0.83121 1.55143
10.7407 0.747756 -0.927025
9.93581 -0.257014 -2.16008
10.6405 -5.50888 3.0712
7.252 -4.64844 3.46172
8.8223 -1.65843 5.4708
4.20915 -0.843711 3.92762
-7.75956 20.2563 1.94475
-6.27882 20.0983 3.22504
-8.33636 18.0982 2.91231
-6.98002 20.1039 0.111395
-4.10458 20.8934 1.19076
-3.76702 20.6306 2.51063
-4.91237 15.8555 3.87746
-7.35471 14.5934 1.33529
-3.5832 16.4935 1.01827
-2.59426 16.0212 2.96948
6.18817 19.4657 1.52071
5.89715 19.1294 3.32075
2.78407 19.2445 3.02081
2.39304 19.3421 1.53603
4.45787 19.4979 0.753627
7.84098 17.9263 2.78283
7.00709 13.351 2.73203
5.3746 14.1816 3.68242
4.69257 14.7708 0.167124
1.39543 16.1707 1.94944
1.10213 2.95129 9.95104
-2.61991 3.12189 9.73592
-2.01632 5.4048 10.4549
0.543996 4.88297 10.5491
-0.308381 1.45668 5.49383
-3.64215 5.85023 8.11018
3.0255 5.37074 8.00678
2.48076 2.07898 6.3155
-3.3462 2.49083 6.81473
-1.18627 -18.0094 -3.6979
-3.44834 -15.0434 -7.63993
-8.29905 -17.4767 -0.173699
-5.08362 -11.4958 -9.08055
-7.33994 -11.822 -7.91513
-10.2993 -13.8143 -3.93652
-9.00547 -14.0929 4.38627
7.74974 -13.9638 5.67249
-5.71003 -3.59098 -7.26041
-9.30486 -7.03455 3.79936
-4.72086 -5.944 7.58804
-0.140297 -6.47314 8.66759
6.24672 -6.53258 7.24707
10.135 -9.13799 2.10695
0.760976 2.13345 -2.63729
-4.98482 0.625216 0.646884
1.36943 0.687505 3.77106
-6.18289 5.92629 -4.49133
-0.910859 8.18534 -5.16111
0.67736 12.5731 -3.93861
1.82405 15.803 3.25928
-1.47744 7.41384 8.52439
0.493971 12.7025 7.30018
1.66463 15.9835 0.808164
1.16574 7.35057 8.40694
5.5265 10.0441 -3.42554
5.35632 10.1641 7.00389
7.77938 4.80283 -2.63511
8.87751 9.4144 0.629145
8.14362 8.59405 5.33639
3.14978 0.42458 1.59407
5.72161 5.94294 -4.06852
4.88242 1.89271 -1.61121
9.3597 3.9327 0.700093
6.08126 1.42755 3.12349
8.34378 4.50873 5.38668
-10.4636 9.48389 0.265375
-8.35341 10.5004 6.25803
-6.71247 9.58889 7.73569
-3.16426 0.572725 3.70493
-9.26408 4.39211 -2.00571
-10.3807 3.53107 1.60664
-9.98584 3.93274 4.15128
-8.77853 5.01807 6.31419
-8.20014 10.3923 -3.13525
-7.1625 14.3686 3.25577
-6.51221 9.44761 -4.53722
-5.55499 13.5482 -3.12841
-6.13736 15.6365 0.264075
3 0 2 8
3 29 166 8
3 29 8 2
3 5 154 10
3 7 154 5
3 5 4 7
3 0 8 19
3 9 25 6
3 0 3 1
3 5 1 3
3 3 0 19
3 3 4 5
3 17 15 3
3 19 17 3
3 3 15 153
3 6 2 1
3 1 2 0
3 1 5 6
3 2 6 29
3 52 5 10
3 4 3 7
3 29 6 25
3 6 5 9
3 5 52 9
3 153 7 3
3 23 36 12
3 167 183 11
3 11 12 167
3 13 12 11
3 23 12 24
3 12 13 24
3 11 28 14
3 11 14 13
3 13 14 24
3 16 82 77
3 77 84 16
3 18 15 17
3 40 82 16
3 18 17 16
3 18 43 15
3 84 18 16
3 16 17 40
3 84 42 18
3 20 19 8
3 19 20 83
3 8 160 20
3 159 66 62
3 22 66 159
3 38 65 22
3 22 65 66
3 159 62 69
3 43 38 22
3 21 155 22
3 159 21 22
3 21 158 155
3 100 30 26
3 9 36 23
3 24 9 23
3 27 14 28
3 27 28 100
3 9 24 25
3 26 25 27
3 27 100 26
3 25 24 27
3 100 28 119
3 27 24 14
3 166 29 25
3 26 166 25
3 11 117 28
3 35 161 34
3 31 32 168
3 112 116 32
3 168 34 31
3 35 34 168
3 32 116 168
3 31 34 111
3 33 158 115
3 33 161 158
3 161 33 34
3 111 33 115
3 111 34 33
3 36 161 35
3 43 42 41
3 43 22 37
3 155 37 22
3 41 38 43
3 37 39 43
3 39 37 153
3 19 83 82
3 82 40 19
3 40 17 19
3 15 43 39
3 41 65 38
3 42 65 41
3 43 18 42
3 44 50 49
3 10 156 53
3 54 9 52
3 54 51 9
3 53 9 51
3 45 47 44
3 46 50 44
3 47 46 44
3 48 47 45
3 45 44 49
3 49 48 45
3 50 46 54
3 51 54 46
3 46 47 51
3 47 48 53
3 10 53 48
3 48 49 10
3 52 10 49
3 49 50 52
3 54 52 50
3 53 51 47
3 59 61 56
3 55 62 58
3 63 62 55
3 62 63 67
3 61 59 70
3 42 70 59
3 67 69 62
3 69 67 68
3 68 159 69
3 162 159 68
3 60 56 58
3 56 55 58
3 60 58 66
3 66 57 60
3 56 60 59
3 62 66 58
3 55 56 61
3 61 63 55
3 64 67 63
3 63 61 64
3 65 59 60
3 60 57 65
3 66 65 57
3 59 65 42
3 68 67 64
3 64 61 70
3 68 64 70
3 72 71 76
3 77 76 71
3 73 74 80
3 75 72 83
3 76 77 82
3 80 79 73
3 79 80 86
3 84 85 42
3 86 70 85
3 70 86 164
3 86 160 165
3 165 164 86
3 85 70 42
3 74 78 71
3 81 74 71
3 72 81 71
3 78 77 71
3 78 74 73
3 81 72 75
3 79 78 73
3 74 81 80
3 72 76 83
3 82 83 76
3 20 81 75
3 83 20 75
3 77 78 84
3 85 84 78
3 79 85 78
3 81 20 160
3 86 85 79
3 160 86 80
3 80 81 160
3 91 94 90
3 91 99 94
3 99 91 100
3 88 87 90
3 89 88 90
3 87 91 90
3 88 89 95
3 92 95 89
3 89 90 93
3 93 92 89
3 94 93 90
3 95 92 96
3 97 96 92
3 92 93 97
3 98 97 93
3 93 94 99
3 99 98 93
3 91 87 30
3 30 100 91
3 87 88 120
3 120 30 87
3 88 95 120
3 121 120 95
3 95 96 121
3 122 121 96
3 96 97 122
3 98 99 118
3 119 118 99
3 100 119 99
3 30 120 26
3 117 98 118
3 117 97 98
3 101 104 102
3 106 103 102
3 105 108 101
3 108 105 109
3 107 105 103
3 106 107 103
3 107 110 105
3 107 106 31
3 112 32 104
3 108 112 101
3 111 110 107
3 31 111 107
3 104 101 112
3 112 108 113
3 110 111 115
3 113 116 112
3 114 162 113
3 115 162 114
3 158 162 115
3 104 106 102
3 103 101 102
3 101 103 105
3 106 104 32
3 110 109 105
3 106 32 31
3 108 109 114
3 114 113 108
3 109 110 115
3 115 114 109
3 123 122 97
3 97 117 123
3 11 123 117
3 123 165 121
3 123 121 122
3 121 166 26
3 165 166 121
3 11 183 123
3 117 118 119
3 117 119 28
3 121 26 120
3 125 128 124
3 129 128 125
3 126 125 124
3 126 124 131
3 126 198 130
3 131 198 126
3 130 173 133
3 132 176 201
3 132 143 176
3 133 173 143
3 143 132 133
3 124 128 127
3 130 129 125
3 126 130 125
3 127 131 124
3 127 128 132
3 130 133 129
3 131 127 201
3 132 201 127
3 128 129 132
3 133 132 129
3 134 138 137
3 138 134 142
3 135 134 137
3 136 135 137
3 135 139 134
3 136 137 143
3 176 143 137
3 139 135 141
3 141 140 139
3 135 136 173
3 173 141 135
3 143 173 136
3 137 138 176
3 142 176 138
3 134 139 142
3 140 142 139
3 148 192 151
3 192 187 151
3 152 192 148
3 144 147 146
3 145 144 146
3 147 144 150
3 151 150 144
3 148 151 144
3 144 145 152
3 152 148 144
3 145 146 149
3 149 152 145
3 174 149 146
3 146 147 174
3 177 174 147
3 150 177 147
3 15 39 153
3 7 153 154
3 154 153 37
3 158 21 162
3 167 185 183
3 183 192 169
3 10 154 156
3 157 156 154
3 154 37 158
3 158 157 154
3 37 155 158
3 156 157 161
3 158 161 157
3 9 53 36
3 53 156 161
3 161 36 53
3 21 159 162
3 163 162 68
3 68 70 163
3 164 163 70
3 160 8 166
3 166 165 160
3 162 163 113
3 113 163 192
3 192 116 113
3 163 164 192
3 164 165 123
3 123 192 164
3 12 36 167
3 35 167 36
3 192 168 116
3 192 123 169
3 183 169 123
3 183 187 192
3 171 199 172
3 172 199 200
3 172 200 201
3 172 201 176
3 173 130 175
3 130 191 175
3 175 191 174
3 193 35 168
3 170 35 193
3 171 184 170
3 170 184 167
3 199 170 197
3 170 199 171
3 170 193 197
3 190 196 191
3 174 191 196
3 199 197 200
3 130 190 191
3 175 174 177
3 170 167 35
3 171 172 178
3 172 176 142
3 178 172 142
3 141 175 179
3 141 173 175
3 179 175 177
3 178 142 181
3 181 142 140
3 140 141 179
3 180 178 181
3 181 140 182
3 182 140 179
3 184 185 167
3 185 187 183
3 178 184 171
3 184 178 180
3 180 181 186
3 181 182 188
3 186 181 188
3 182 179 150
3 188 182 150
3 177 150 179
3 184 180 185
3 180 186 185
3 185 186 187
3 187 186 188
3 187 188 151
3 151 188 150
3 197 189 131
3 189 190 198
3 131 189 198
3 197 193 189
3 193 194 189
3 189 195 190
3 189 194 195
3 190 195 196
3 193 168 194
3 194 192 195
3 194 168 192
3 195 152 196
3 195 192 152
3 196 152 149
3 174 196 149
3 200 197 201
3 201 197 131
3 198 190 130
